{
  "accessors": [
    {
      "bufferView": 2,
      "componentType": 5126,
      "count": 65532,
      "max": [
        1078.18359375,
        1062.5777587890625,
        1106.1854248046875
      ],
      "min": [
        -1078.18359375,
        -29.538755416870117,
        -3859.076416015625
      ],
      "type": "VEC3"
    },
    {
      "bufferView": 2,
      "byteOffset": 786384,
      "componentType": 5126,
      "count": 65532,
      "max": [
        1.0,
        1.0,
        0.9999947547912598
      ],
      "min": [
        -1.0,
        -0.9999938607215881,
        -0.9999955296516418
      ],
      "type": "VEC3"
    },
    {
      "bufferView": 1,
      "componentType": 5126,
      "count": 65532,
      "max": [
        0.9903532862663269,
        0.9954780340194702
      ],
      "min": [
        0.004521974828094244,
        0.009553074836730957
      ],
      "type": "VEC2"
    },
    {
      "bufferView": 0,
      "componentType": 5125,
      "count": 273951,
      "type": "SCALAR"
    },
    {
      "bufferView": 2,
      "byteOffset": 1572768,
      "componentType": 5126,
      "count": 65395,
      "max": [
        1078.18359375,
        1062.5777587890625,
        1106.1854248046875
      ],
      "min": [
        -1078.18359375,
        -29.538755416870117,
        -3859.076416015625
      ],
      "type": "VEC3"
    },
    {
      "bufferView": 2,
      "byteOffset": 2357508,
      "componentType": 5126,
      "count": 65395,
      "max": [
        1.0,
        1.0,
        1.0
      ],
      "min": [
        -1.0,
        -1.0,
        -1.0
      ],
      "type": "VEC3"
    },
    {
      "bufferView": 1,
      "byteOffset": 524256,
      "componentType": 5126,
      "count": 65395,
      "max": [
        0.9951401352882385,
        0.9954780340194702
      ],
      "min": [
        0.004521980881690979,
        0.00628817081451416
      ],
      "type": "VEC2"
    },
    {
      "bufferView": 0,
      "byteOffset": 1095804,
      "componentType": 5125,
      "count": 252297,
      "type": "SCALAR"
    },
    {
      "bufferView": 2,
      "byteOffset": 3142248,
      "componentType": 5126,
      "count": 51736,
      "max": [
        1107.4083251953125,
        1098.493896484375,
        2438.149169921875
      ],
      "min": [
        -1107.4083251953125,
        85.73861694335938,
        -2521.372314453125
      ],
      "type": "VEC3"
    },
    {
      "bufferView": 2,
      "byteOffset": 3763080,
      "componentType": 5126,
      "count": 51736,
      "max": [
        1.0,
        1.0,
        1.0
      ],
      "min": [
        -1.0,
        -1.0,
        -1.0
      ],
      "type": "VEC3"
    },
    {
      "bufferView": 1,
      "byteOffset": 1047416,
      "componentType": 5126,
      "count": 51736,
      "max": [
        0.9943890571594238,
        0.994496762752533
      ],
      "min": [
        0.005503238178789616,
        0.0058776140213012695
      ],
      "type": "VEC2"
    },
    {
      "bufferView": 0,
      "byteOffset": 2104992,
      "componentType": 5125,
      "count": 181482,
      "type": "SCALAR"
    },
    {
      "bufferView": 2,
      "byteOffset": 4383912,
      "componentType": 5126,
      "count": 9849,
      "max": [
        837.7896118164063,
        421.84344482421875,
        281.3996276855469
      ],
      "min": [
        -837.7894287109375,
        -275.81298828125,
        -1488.6793212890625
      ],
      "type": "VEC3"
    },
    {
      "bufferView": 2,
      "byteOffset": 4502100,
      "componentType": 5126,
      "count": 9849,
      "max": [
        1.0,
        1.0,
        1.0
      ],
      "min": [
        -1.0,
        -1.0,
        -1.0
      ],
      "type": "VEC3"
    },
    {
      "bufferView": 1,
      "byteOffset": 1461304,
      "componentType": 5126,
      "count": 9849,
      "max": [
        0.9927565455436707,
        0.9927565455436707
      ],
      "min": [
        0.007243432104587555,
        0.009498238563537598
      ],
      "type": "VEC2"
    },
    {
      "bufferView": 0,
      "byteOffset": 2830920,
      "componentType": 5125,
      "count": 32112,
      "type": "SCALAR"
    },
    {
      "bufferView": 2,
      "byteOffset": 4620288,
      "componentType": 5126,
      "count": 592,
      "max": [
        57.855445861816406,
        57.645286560058594,
        1251.263427734375
      ],
      "min": [
        -57.85566329956055,
        -58.063480377197266,
        190.4020538330078
      ],
      "type": "VEC3"
    },
    {
      "bufferView": 2,
      "byteOffset": 4627392,
      "componentType": 5126,
      "count": 592,
      "max": [
        1.0,
        1.0,
        1.0
      ],
      "min": [
        -1.0,
        -1.0,
        -0.5384972095489502
      ],
      "type": "VEC3"
    },
    {
      "bufferView": 1,
      "byteOffset": 1540096,
      "componentType": 5126,
      "count": 592,
      "max": [
        0.844719648361206,
        0.9948444366455078
      ],
      "min": [
        0.005155579186975956,
        0.0051555633544921875
      ],
      "type": "VEC2"
    },
    {
      "bufferView": 0,
      "byteOffset": 2959368,
      "componentType": 5125,
      "count": 2634,
      "type": "SCALAR"
    },
    {
      "bufferView": 2,
      "byteOffset": 4634496,
      "componentType": 5126,
      "count": 1372,
      "max": [
        1026.986572265625,
        268.8659973144531,
        2208.59130859375
      ],
      "min": [
        -1026.986572265625,
        33.3726806640625,
        1152.408203125
      ],
      "type": "VEC3"
    },
    {
      "bufferView": 2,
      "byteOffset": 4650960,
      "componentType": 5126,
      "count": 1372,
      "max": [
        1.0,
        0.9982759952545166,
        0.9982808828353882
      ],
      "min": [
        -1.0,
        -0.9982770085334778,
        -0.9982767701148987
      ],
      "type": "VEC3"
    },
    {
      "bufferView": 1,
      "byteOffset": 1544832,
      "componentType": 5126,
      "count": 1372,
      "max": [
        0.9536310434341431,
        0.9918778538703918
      ],
      "min": [
        0.008122171275317669,
        0.00812220573425293
      ],
      "type": "VEC2"
    },
    {
      "bufferView": 0,
      "byteOffset": 2969904,
      "componentType": 5125,
      "count": 5184,
      "type": "SCALAR"
    },
    {
      "bufferView": 2,
      "byteOffset": 4667424,
      "componentType": 5126,
      "count": 44148,
      "max": [
        1159.653564453125,
        713.4844360351563,
        2537.4814453125
      ],
      "min": [
        -1157.5489501953125,
        -575.1427001953125,
        -2389.49560546875
      ],
      "type": "VEC3"
    },
    {
      "bufferView": 2,
      "byteOffset": 5197200,
      "componentType": 5126,
      "count": 44148,
      "max": [
        1.0,
        1.0,
        1.0
      ],
      "min": [
        -1.0,
        -1.0,
        -1.0
      ],
      "type": "VEC3"
    },
    {
      "bufferView": 1,
      "byteOffset": 1555808,
      "componentType": 5126,
      "count": 44148,
      "max": [
        0.9873348474502563,
        0.9951943755149841
      ],
      "min": [
        0.004805607255548239,
        0.012719035148620605
      ],
      "type": "VEC2"
    },
    {
      "bufferView": 0,
      "byteOffset": 2990640,
      "componentType": 5125,
      "count": 147558,
      "type": "SCALAR"
    },
    {
      "bufferView": 2,
      "byteOffset": 5726976,
      "componentType": 5126,
      "count": 372,
      "max": [
        -13.192198753356934,
        245.1060791015625,
        2554.381103515625
      ],
      "min": [
        -363.19219970703125,
        -152.4561767578125,
        2247.123046875
      ],
      "type": "VEC3"
    },
    {
      "bufferView": 2,
      "byteOffset": 5731440,
      "componentType": 5126,
      "count": 372,
      "max": [
        1.0,
        0.9510565400123596,
        0.9510583877563477
      ],
      "min": [
        -1.0,
        -0.9510564804077148,
        -0.9510583281517029
      ],
      "type": "VEC3"
    },
    {
      "bufferView": 1,
      "byteOffset": 1908992,
      "componentType": 5126,
      "count": 372,
      "max": [
        0.9914043545722961,
        0.9914043545722961
      ],
      "min": [
        0.008595622144639492,
        0.05697488784790039
      ],
      "type": "VEC2"
    },
    {
      "bufferView": 0,
      "byteOffset": 3580872,
      "componentType": 5125,
      "count": 1440,
      "type": "SCALAR"
    },
    {
      "bufferView": 2,
      "byteOffset": 5735904,
      "componentType": 5126,
      "count": 776,
      "max": [
        723.7576293945313,
        459.6004333496094,
        2263.7177734375
      ],
      "min": [
        -722.2161865234375,
        272.1089172363281,
        -1120.848876953125
      ],
      "type": "VEC3"
    },
    {
      "bufferView": 2,
      "byteOffset": 5745216,
      "componentType": 5126,
      "count": 776,
      "max": [
        0.9969175457954407,
        0.9938092231750488,
        0.8437587022781372
      ],
      "min": [
        -0.9969175457954407,
        -0.07845772057771683,
        -0.9819863438606262
      ],
      "type": "VEC3"
    },
    {
      "bufferView": 1,
      "byteOffset": 1911968,
      "componentType": 5126,
      "count": 776,
      "max": [
        0.9031190276145935,
        0.9939079284667969
      ],
      "min": [
        0.0060920980758965015,
        0.006092071533203125
      ],
      "type": "VEC2"
    },
    {
      "bufferView": 0,
      "byteOffset": 3586632,
      "componentType": 5125,
      "count": 1542,
      "type": "SCALAR"
    },
    {
      "bufferView": 2,
      "byteOffset": 5754528,
      "componentType": 5126,
      "count": 4539,
      "max": [
        1051.0704345703125,
        992.9175415039063,
        1605.283203125
      ],
      "min": [
        823.4825439453125,
        30.356786727905273,
        -1607.1031494140625
      ],
      "type": "VEC3"
    },
    {
      "bufferView": 2,
      "byteOffset": 5808996,
      "componentType": 5126,
      "count": 4539,
      "max": [
        1.0,
        1.0,
        1.0
      ],
      "min": [
        -1.0,
        -1.0,
        -1.0
      ],
      "type": "VEC3"
    },
    {
      "bufferView": 1,
      "byteOffset": 1918176,
      "componentType": 5126,
      "count": 4539,
      "max": [
        0.9757305383682251,
        0.9921273589134216
      ],
      "min": [
        0.007872628048062325,
        0.007872700691223145
      ],
      "type": "VEC2"
    },
    {
      "bufferView": 0,
      "byteOffset": 3592800,
      "componentType": 5125,
      "count": 17535,
      "type": "SCALAR"
    }
  ],
  "asset": {
    "extras": {
      "author": "jpo1703 (https://sketchfab.com/jpo1703)",
      "license": "CC-BY-4.0 (http://creativecommons.org/licenses/by/4.0/)",
      "source": "https://sketchfab.com/3d-models/italian-m1542-ww2-tank-fd4196a368d949e58abfc44251f39654",
      "title": "Italian M15/42 ww2 Tank"
    },
    "generator": "Sketchfab-12.68.0",
    "version": "2.0"
  },
  "bufferViews": [
    {
      "buffer": 0,
      "byteLength": 3662940,
      "name": "floatBufferViews",
      "target": 34963
    },
    {
      "buffer": 0,
      "byteLength": 1954488,
      "byteOffset": 3662940,
      "byteStride": 8,
      "name": "floatBufferViews",
      "target": 34962
    },
    {
      "buffer": 0,
      "byteLength": 5863464,
      "byteOffset": 5617428,
      "byteStride": 12,
      "name": "floatBufferViews",
      "target": 34962
    }
  ],
  "buffers": [
    {
      "byteLength": 11480892,
      "uri": "scene.bin"
    }
  ],
  "images": [
    {
      "uri": "textures/track_baseColor.png"
    },
    {
      "uri": "textures/wheels_baseColor.png"
    },
    {
      "uri": "textures/turret_baseColor.png"
    },
    {
      "uri": "textures/material_baseColor.png"
    },
    {
      "uri": "textures/exhaust_baseColor.png"
    },
    {
      "uri": "textures/main_body_baseColor.png"
    },
    {
      "uri": "textures/rubber2_baseColor.png"
    },
    {
      "uri": "textures/black_baseColor.png"
    },
    {
      "uri": "textures/rubber_baseColor.png"
    }
  ],
  "materials": [
    {
      "doubleSided": true,
      "name": "track",
      "pbrMetallicRoughness": {
        "baseColorTexture": {
          "index": 0
        },
        "metallicFactor": 0.0,
        "roughnessFactor": 0.9524317153998911
      }
    },
    {
      "doubleSided": true,
      "name": "wheels",
      "pbrMetallicRoughness": {
        "baseColorTexture": {
          "index": 1
        },
        "metallicFactor": 0.0,
        "roughnessFactor": 0.9524317153998911
      }
    },
    {
      "doubleSided": true,
      "name": "turret",
      "pbrMetallicRoughness": {
        "baseColorTexture": {
          "index": 2
        },
        "metallicFactor": 0.0,
        "roughnessFactor": 0.9524317153998911
      }
    },
    {
      "doubleSided": true,
      "name": "material",
      "pbrMetallicRoughness": {
        "baseColorTexture": {
          "index": 3
        },
        "metallicFactor": 0.0,
        "roughnessFactor": 0.9524317153998911
      }
    },
    {
      "doubleSided": true,
      "name": "exhaust",
      "pbrMetallicRoughness": {
        "baseColorTexture": {
          "index": 4
        },
        "metallicFactor": 0.0,
        "roughnessFactor": 0.9524317153998911
      }
    },
    {
      "doubleSided": true,
      "name": "main_body",
      "pbrMetallicRoughness": {
        "baseColorTexture": {
          "index": 5
        },
        "metallicFactor": 0.0,
        "roughnessFactor": 0.9524317153998911
      }
    },
    {
      "doubleSided": true,
      "name": "rubber2",
      "pbrMetallicRoughness": {
        "baseColorTexture": {
          "index": 6
        },
        "metallicFactor": 0.0,
        "roughnessFactor": 0.9524317153998911
      }
    },
    {
      "doubleSided": true,
      "name": "black",
      "pbrMetallicRoughness": {
        "baseColorTexture": {
          "index": 7
        },
        "metallicFactor": 0.0,
        "roughnessFactor": 0.9524317153998911
      }
    },
    {
      "doubleSided": true,
      "name": "rubber",
      "pbrMetallicRoughness": {
        "baseColorTexture": {
          "index": 8
        },
        "metallicFactor": 0.0,
        "roughnessFactor": 0.9524317153998911
      }
    }
  ],
  "meshes": [
    {
      "name": "track_track_0",
      "primitives": [
        {
          "attributes": {
            "NORMAL": 1,
            "POSITION": 0,
            "TEXCOORD_0": 2
          },
          "indices": 3,
          "material": 0,
          "mode": 4
        }
      ]
    },
    {
      "name": "track_track_0",
      "primitives": [
        {
          "attributes": {
            "NORMAL": 5,
            "POSITION": 4,
            "TEXCOORD_0": 6
          },
          "indices": 7,
          "material": 0,
          "mode": 4
        }
      ]
    },
    {
      "name": "wheels_and_bogies_wheels_0",
      "primitives": [
        {
          "attributes": {
            "NORMAL": 9,
            "POSITION": 8,
            "TEXCOORD_0": 10
          },
          "indices": 11,
          "material": 1,
          "mode": 4
        }
      ]
    },
    {
      "name": "turret_turret_0",
      "primitives": [
        {
          "attributes": {
            "NORMAL": 13,
            "POSITION": 12,
            "TEXCOORD_0": 14
          },
          "indices": 15,
          "material": 2,
          "mode": 4
        }
      ]
    },
    {
      "name": "gun_gun_0",
      "primitives": [
        {
          "attributes": {
            "NORMAL": 17,
            "POSITION": 16,
            "TEXCOORD_0": 18
          },
          "indices": 19,
          "material": 3,
          "mode": 4
        }
      ]
    },
    {
      "name": "exhaust_exhaust_0",
      "primitives": [
        {
          "attributes": {
            "NORMAL": 21,
            "POSITION": 20,
            "TEXCOORD_0": 22
          },
          "indices": 23,
          "material": 4,
          "mode": 4
        }
      ]
    },
    {
      "name": "main_body_main body_0",
      "primitives": [
        {
          "attributes": {
            "NORMAL": 25,
            "POSITION": 24,
            "TEXCOORD_0": 26
          },
          "indices": 27,
          "material": 5,
          "mode": 4
        }
      ]
    },
    {
      "name": "rubber_2_rubber2_0",
      "primitives": [
        {
          "attributes": {
            "NORMAL": 29,
            "POSITION": 28,
            "TEXCOORD_0": 30
          },
          "indices": 31,
          "material": 6,
          "mode": 4
        }
      ]
    },
    {
      "name": "black_grill_black_0",
      "primitives": [
        {
          "attributes": {
            "NORMAL": 33,
            "POSITION": 32,
            "TEXCOORD_0": 34
          },
          "indices": 35,
          "material": 7,
          "mode": 4
        }
      ]
    },
    {
      "name": "rubber_rubber_0",
      "primitives": [
        {
          "attributes": {
            "NORMAL": 37,
            "POSITION": 36,
            "TEXCOORD_0": 38
          },
          "indices": 39,
          "material": 8,
          "mode": 4
        }
      ]
    }
  ],
  "nodes": [
    {
      "children": [
        1
      ],
      "matrix": [
        1.0,
        0.0,
        0.0,
        0.0,
        0.0,
        2.220446049250313e-16,
        -1.0,
        0.0,
        0.0,
        1.0,
        2.220446049250313e-16,
        0.0,
        0.0,
        0.0,
        0.0,
        1.0
      ],
      "name": "Sketchfab_model"
    },
    {
      "children": [
        2
      ],
      "matrix": [
        1.0,
        0.0,
        0.0,
        0.0,
        0.0,
        0.0,
        1.0,
        0.0,
        0.0,
        -1.0,
        0.0,
        0.0,
        0.0,
        0.0,
        0.0,
        1.0
      ],
      "name": "eaff3c3bb0bc48a7b6f85a05775b2b5a.fbx"
    },
    {
      "children": [
        3,
        5
      ],
      "name": "RootNode"
    },
    {
      "children": [
        4
      ],
      "matrix": [
        0.5922910576952565,
        -0.5107206058367209,
        0.6231819684073082,
        0.0,
        0.35184227232337795,
        0.8597467433923625,
        0.37019258857052917,
        0.0,
        -0.7248436509900299,
        -7.771561172376096e-16,
        0.6889134064738787,
        0.0,
        -3062.52978515625,
        2387.9296875,
        -3999.997314453125,
        1.0
      ],
      "name": "CINEMA_4D_Editor"
    },
    {
      "name": "Object_4"
    },
    {
      "children": [
        6,
        9,
        11,
        13,
        15,
        17,
        19,
        21,
        23
      ],
      "name": "Null"
    },
    {
      "children": [
        7,
        8
      ],
      "matrix": [
        1.0,
        0.0,
        -1.043907449371772e-08,
        0.0,
        -3.6835564271029816e-11,
        0.9999937743884838,
        -0.0035286235665046373,
        0.0,
        1.0439009504095335e-08,
        0.0035286235665046373,
        0.9999937743884838,
        0.0,
        -1.2053271348122507e-05,
        -887.3062133789063,
        1455.857666015625,
        1.0
      ],
      "name": "track"
    },
    {
      "mesh": 0,
      "name": "track_track_0"
    },
    {
      "mesh": 1,
      "name": "track_track_0"
    },
    {
      "children": [
        10
      ],
      "matrix": [
        -1.0,
        1.2246467991473535e-16,
        -1.224646799147353e-16,
        0.0,
        1.2246467991473535e-16,
        1.0,
        -1.2246467991473535e-16,
        0.0,
        1.224646799147353e-16,
        -1.2246467991473535e-16,
        -1.0,
        0.0,
        0.0,
        -904.2860717773438,
        0.0,
        1.0
      ],
      "name": "wheels_and_bogies"
    },
    {
      "mesh": 2,
      "name": "wheels_and_bogies_wheels_0"
    },
    {
      "children": [
        12
      ],
      "matrix": [
        -1.0,
        -1.2246467991473535e-16,
        1.224646799147353e-16,
        0.0,
        -1.2246467991473535e-16,
        1.0,
        -1.2246467991473535e-16,
        0.0,
        -1.224646799147353e-16,
        -1.2246467991473535e-16,
        -1.0,
        0.0,
        -9.189376419093537e-14,
        986.9021606445313,
        -750.3695678710938,
        1.0
      ],
      "name": "turret"
    },
    {
      "mesh": 3,
      "name": "turret_turret_0"
    },
    {
      "children": [
        14
      ],
      "matrix": [
        -1.0,
        -1.2246467991473535e-16,
        1.224646799147353e-16,
        0.0,
        -1.2246467991473535e-16,
        1.0,
        -1.2246467991473535e-16,
        0.0,
        -1.224646799147353e-16,
        -1.2246467991473535e-16,
        -1.0,
        0.0,
        -9.189376419093537e-14,
        986.9021606445313,
        -750.3695678710938,
        1.0
      ],
      "name": "gun"
    },
    {
      "mesh": 4,
      "name": "gun_gun_0"
    },
    {
      "children": [
        16
      ],
      "name": "exhaust"
    },
    {
      "mesh": 5,
      "name": "exhaust_exhaust_0"
    },
    {
      "children": [
        18
      ],
      "name": "main_body"
    },
    {
      "mesh": 6,
      "name": "main_body_main body_0"
    },
    {
      "children": [
        20
      ],
      "name": "rubber_2"
    },
    {
      "mesh": 7,
      "name": "rubber_2_rubber2_0"
    },
    {
      "children": [
        22
      ],
      "name": "black_grill"
    },
    {
      "mesh": 8,
      "name": "black_grill_black_0"
    },
    {
      "children": [
        24
      ],
      "matrix": [
        -1.0,
        1.2246467991473535e-16,
        -1.224646799147353e-16,
        0.0,
        1.2246467991473535e-16,
        1.0,
        -1.2246467991473535e-16,
        0.0,
        1.224646799147353e-16,
        -1.2246467991473535e-16,
        -1.0,
        0.0,
        0.0,
        -904.2860717773438,
        0.0,
        1.0
      ],
      "name": "rubber"
    },
    {
      "mesh": 9,
      "name": "rubber_rubber_0"
    }
  ],
  "samplers": [
    {
      "magFilter": 9729,
      "minFilter": 9987,
      "wrapS": 10497,
      "wrapT": 10497
    }
  ],
  "scene": 0,
  "scenes": [
    {
      "name": "Sketchfab_Scene",
      "nodes": [
        0
      ]
    }
  ],
  "textures": [
    {
      "sampler": 0,
      "source": 0
    },
    {
      "sampler": 0,
      "source": 1
    },
    {
      "sampler": 0,
      "source": 2
    },
    {
      "sampler": 0,
      "source": 3
    },
    {
      "sampler": 0,
      "source": 4
    },
    {
      "sampler": 0,
      "source": 5
    },
    {
      "sampler": 0,
      "source": 6
    },
    {
      "sampler": 0,
      "source": 7
    },
    {
      "sampler": 0,
      "source": 8
    }
  ]
}
