{
  "accessors": [
    {
      "bufferView": 2,
      "componentType": 5126,
      "count": 1405,
      "max": [
        162.47845458984375,
        262.3601989746094,
        221.10159301757813
      ],
      "min": [
        -80.48345947265625,
        0.0,
        -255.4878387451172
      ],
      "type": "VEC3"
    },
    {
      "bufferView": 2,
      "byteOffset": 16860,
      "componentType": 5126,
      "count": 1405,
      "max": [
        1.0,
        1.0,
        1.0
      ],
      "min": [
        -1.0,
        -1.0,
        -1.0
      ],
      "type": "VEC3"
    },
    {
      "bufferView": 1,
      "componentType": 5126,
      "count": 1405,
      "max": [
        2.9573893547058105,
        1.4573781490325928
      ],
      "min": [
        -0.09398403763771057,
        -0.9924221634864807
      ],
      "type": "VEC2"
    },
    {
      "bufferView": 0,
      "componentType": 5125,
      "count": 3864,
      "type": "SCALAR"
    },
    {
      "bufferView": 2,
      "byteOffset": 33720,
      "componentType": 5126,
      "count": 368,
      "max": [
        167.47845458984375,
        131.26107788085938,
        221.5699462890625
      ],
      "min": [
        -85.48345947265625,
        -8.73892593383789,
        -138.16143798828125
      ],
      "type": "VEC3"
    },
    {
      "bufferView": 2,
      "byteOffset": 38136,
      "componentType": 5126,
      "count": 368,
      "max": [
        1.0,
        0.9999490976333618,
        1.0
      ],
      "min": [
        -1.0,
        -0.9998496770858765,
        -1.0
      ],
      "type": "VEC3"
    },
    {
      "bufferView": 1,
      "byteOffset": 11240,
      "componentType": 5126,
      "count": 368,
      "max": [
        1.0,
        1.7307231426239014
      ],
      "min": [
        5.960464477539063e-08,
        -5.960464477539063e-08
      ],
      "type": "VEC2"
    },
    {
      "bufferView": 0,
      "byteOffset": 15456,
      "componentType": 5125,
      "count": 1056,
      "type": "SCALAR"
    }
  ],
  "asset": {
    "extras": {
      "author": "ryanjonesgamesdesgin (https://sketchfab.com/ryanjonesgamesdesgin)",
      "license": "CC-BY-4.0 (http://creativecommons.org/licenses/by/4.0/)",
      "source": "https://sketchfab.com/3d-models/low-poly-tank-9b525246579d4f29afb3536ed4efd7ed",
      "title": "Low poly tank"
    },
    "generator": "Sketchfab-12.68.0",
    "version": "2.0"
  },
  "bufferViews": [
    {
      "buffer": 0,
      "byteLength": 19680,
      "name": "floatBufferViews",
      "target": 34963
    },
    {
      "buffer": 0,
      "byteLength": 14184,
      "byteOffset": 19680,
      "byteStride": 8,
      "name": "floatBufferViews",
      "target": 34962
    },
    {
      "buffer": 0,
      "byteLength": 42552,
      "byteOffset": 33864,
      "byteStride": 12,
      "name": "floatBufferViews",
      "target": 34962
    }
  ],
  "buffers": [
    {
      "byteLength": 76416,
      "uri": "scene.bin"
    }
  ],
  "images": [
    {
      "uri": "textures/Tank_meterial_baseColor.png"
    },
    {
      "uri": "textures/Tank_treads_baseColor.png"
    }
  ],
  "materials": [
    {
      "doubleSided": true,
      "name": "Tank_meterial",
      "pbrMetallicRoughness": {
        "baseColorTexture": {
          "index": 0
        },
        "metallicFactor": 0.2692376678887815,
        "roughnessFactor": 0.6
      }
    },
    {
      "doubleSided": true,
      "name": "Tank_treads",
      "pbrMetallicRoughness": {
        "baseColorTexture": {
          "index": 1
        },
        "roughnessFactor": 0.6
      }
    }
  ],
  "meshes": [
    {
      "name": "pCube3_Tank_meterial_0",
      "primitives": [
        {
          "attributes": {
            "NORMAL": 1,
            "POSITION": 0,
            "TEXCOORD_0": 2
          },
          "indices": 3,
          "material": 0,
          "mode": 4
        }
      ]
    },
    {
      "name": "pCube3_Tank_treads_0",
      "primitives": [
        {
          "attributes": {
            "NORMAL": 5,
            "POSITION": 4,
            "TEXCOORD_0": 6
          },
          "indices": 7,
          "material": 1,
          "mode": 4
        }
      ]
    }
  ],
  "nodes": [
    {
      "children": [
        1
      ],
      "matrix": [
        1.0,
        0.0,
        0.0,
        0.0,
        0.0,
        2.220446049250313e-16,
        -1.0,
        0.0,
        0.0,
        1.0,
        2.220446049250313e-16,
        0.0,
        0.0,
        0.0,
        0.0,
        1.0
      ],
      "name": "Sketchfab_model"
    },
    {
      "children": [
        2
      ],
      "matrix": [
        1.0,
        0.0,
        0.0,
        0.0,
        0.0,
        0.0,
        1.0,
        0.0,
        0.0,
        -1.0,
        0.0,
        0.0,
        0.0,
        0.0,
        0.0,
        1.0
      ],
      "name": "434a6f897398445781f63648cd161577.fbx"
    },
    {
      "children": [
        3
      ],
      "name": "RootNode"
    },
    {
      "children": [
        4,
        5
      ],
      "name": "pCube3"
    },
    {
      "mesh": 0,
      "name": "pCube3_Tank_meterial_0"
    },
    {
      "mesh": 1,
      "name": "pCube3_Tank_treads_0"
    }
  ],
  "samplers": [
    {
      "magFilter": 9729,
      "minFilter": 9987,
      "wrapS": 10497,
      "wrapT": 10497
    }
  ],
  "scene": 0,
  "scenes": [
    {
      "name": "Sketchfab_Scene",
      "nodes": [
        0
      ]
    }
  ],
  "textures": [
    {
      "sampler": 0,
      "source": 0
    },
    {
      "sampler": 0,
      "source": 1
    }
  ]
}
